<svg width="28" height="34" viewBox="0 0 28 34" fill="none" xmlns="http://www.w3.org/2000/svg">
<path d="M14 17C12.1667 17 10.6667 15.5 10.6667 13.6667C10.6667 11.8334 12.1667 10.3334 14 10.3334C15.8333 10.3334 17.3333 11.8334 17.3333 13.6667C17.3333 15.5 15.8333 17 14 17ZM24 14C24 7.95004 19.5833 3.66671 14 3.66671C8.41667 3.66671 4 7.95004 4 14C4 17.9 7.25 23.0667 14 29.2334C20.75 23.0667 24 17.9 24 14ZM14 0.333374C21 0.333374 27.3333 5.70004 27.3333 14C27.3333 19.5334 22.8833 26.0834 14 33.6667C5.11667 26.0834 0.666668 19.5334 0.666668 14C0.666668 5.70004 7 0.333374 14 0.333374Z" fill="#FFC90C"/>
</svg>
