<svg width="34" height="34" viewBox="0 0 34 34" fill="none" xmlns="http://www.w3.org/2000/svg">
<path d="M15.6583 31H4.33333C3.44928 31 2.60143 30.6489 1.97631 30.0237C1.35119 29.3986 1 28.5508 1 27.6667V7.66671C1 6.78265 1.35119 5.93481 1.97631 5.30968C2.60143 4.68456 3.44928 4.33337 4.33333 4.33337H24.3333C25.2174 4.33337 26.0652 4.68456 26.6904 5.30968C27.3155 5.93481 27.6667 6.78265 27.6667 7.66671V14.3334" stroke="#FFC90C" stroke-width="2" stroke-linecap="round" stroke-linejoin="round"/>
<path d="M26 32.6667C29.6819 32.6667 32.6667 29.6819 32.6667 26C32.6667 22.3181 29.6819 19.3334 26 19.3334C22.3181 19.3334 19.3333 22.3181 19.3333 26C19.3333 29.6819 22.3181 32.6667 26 32.6667Z" stroke="#FFC90C" stroke-width="2" stroke-linecap="round" stroke-linejoin="round"/>
<path d="M21 1V7.66667" stroke="#FFC90C" stroke-width="2" stroke-linecap="round" stroke-linejoin="round"/>
<path d="M7.66666 1V7.66667" stroke="#FFC90C" stroke-width="2" stroke-linecap="round" stroke-linejoin="round"/>
<path d="M1 14.3334H27.6667" stroke="#FFC90C" stroke-width="2" stroke-linecap="round" stroke-linejoin="round"/>
<path d="M26 23.4933V26L27.6667 27.6666" stroke="#FFC90C" stroke-width="2" stroke-linecap="round" stroke-linejoin="round"/>
</svg>
